<svg width="105.5" height="100" viewBox="0 0 210 200" fill="none" xmlns="http://www.w3.org/2000/svg">
<g id="bx-bullseye 1">
<path id="Vector" d="M105 50C76.0462 50 52.5 72.425 52.5 100C52.5 127.575 76.0462 150 105 150C133.954 150 157.5 127.575 157.5 100C157.5 72.425 133.954 50 105 50ZM105 133.333C85.6975 133.333 70 118.383 70 100C70 81.6167 85.6975 66.6667 105 66.6667C124.302 66.6667 140 81.6167 140 100C140 118.383 124.302 133.333 105 133.333Z" fill="#EBEBEB"/>
<path id="Vector_2" d="M105 16.6666C57.5663 16.6666 17.5 54.825 17.5 100C17.5 145.175 57.5663 183.333 105 183.333C152.434 183.333 192.5 145.175 192.5 100C192.5 54.825 152.434 16.6666 105 16.6666ZM105 166.667C67.0513 166.667 35 136.142 35 100C35 63.8583 67.0513 33.3333 105 33.3333C142.949 33.3333 175 63.8583 175 100C175 136.142 142.949 166.667 105 166.667Z" fill="#EBEBEB"/>
<path id="Vector_3" d="M105 83.3334C95.5412 83.3334 87.5 90.9917 87.5 100C87.5 109.008 95.5412 116.667 105 116.667C114.459 116.667 122.5 109.008 122.5 100C122.5 90.9917 114.459 83.3334 105 83.3334Z" fill="#EBEBEB"/>
</g>
</svg>
