<svg width="105.5" height="100" viewBox="0 0 211 200" fill="none" xmlns="http://www.w3.org/2000/svg">
<g id="bx-rocket 1">
<path id="Vector" d="M183.717 19.8333C173.893 17.7381 163.858 16.6761 153.792 16.6667C144.285 16.0918 134.752 17.3125 125.742 20.2586C116.732 23.2047 108.423 27.818 101.292 33.8333C91.9 42.7778 82.5958 51.6944 73.3792 60.5833C62.7917 59.5 37.6792 58.9167 20.8792 75.0833C19.2495 76.6447 18.3347 78.7568 18.3347 80.9583C18.3347 83.1599 19.2495 85.272 20.8792 86.8333L119.754 181.167C121.394 182.719 123.611 183.59 125.923 183.59C128.235 183.59 130.452 182.719 132.092 181.167C149.154 164.5 148.629 141 147.579 131.167L175.667 104.5C203.579 77.9166 190.892 28 190.367 25.9167C189.963 24.4136 189.126 23.0478 187.951 21.973C186.776 20.8983 185.31 20.1572 183.717 19.8333ZM163.067 92.75L131.917 122.25C130.908 123.22 130.165 124.411 129.753 125.719C129.341 127.027 129.273 128.411 129.554 129.75C131.444 140.898 129.799 152.33 124.829 162.583L40.2167 81.8333C51.1529 77.0397 63.378 75.5843 75.2167 77.6666C76.6173 77.8403 78.0413 77.6885 79.367 77.2241C80.6926 76.7598 81.8805 75.9966 82.8292 75C82.8292 75 95.0792 62.9166 113.542 45.3333C124.894 36.6509 139.267 32.3658 153.792 33.3333C160.624 33.3656 167.441 33.9229 174.179 35C176.279 46.9166 179.604 77 163.067 92.75Z" fill="#0500FF"/>
<path id="Vector_2" d="M138.304 85.8333C147.969 85.8333 155.804 78.3714 155.804 69.1667C155.804 59.9619 147.969 52.5 138.304 52.5C128.639 52.5 120.804 59.9619 120.804 69.1667C120.804 78.3714 128.639 85.8333 138.304 85.8333Z" fill="#0500FF"/>
<path id="Vector_3" d="M44.4167 133.333C26.9167 141.667 26.9167 175 26.9167 175C43.1135 174.56 58.6192 168.653 70.6667 158.333L44.4167 133.333Z" fill="#0500FF"/>
</g>
</svg>
