<svg width="105.5" height="100" viewBox="0 0 211 200" fill="none" xmlns="http://www.w3.org/2000/svg">
<g id="bxs-donate-heart 1">
<path id="Vector" d="M155.436 108.5L122.833 133.333H79.0833V125H114.652C115.443 125 116.22 124.795 116.899 124.407C117.577 124.02 118.133 123.464 118.507 122.8C118.88 122.136 119.058 121.387 119.02 120.634C118.982 119.881 118.73 119.152 118.292 118.525L110.522 107.425C108.928 105.14 106.765 103.266 104.226 101.971C101.687 100.675 98.8512 99.9982 95.9708 100H26.5833C24.2626 100 22.037 100.878 20.3961 102.441C18.7551 104.004 17.8333 106.123 17.8333 108.333V158.333C17.8333 162.754 19.677 166.993 22.9589 170.118C26.2408 173.244 30.692 175 35.3333 175H119.674C123.416 175.001 127.115 174.24 130.522 172.768C133.93 171.296 136.968 169.148 139.432 166.467L192.833 108.333L180.128 104.3C175.972 102.98 171.534 102.673 167.221 103.407C162.907 104.141 158.856 105.892 155.436 108.5ZM168.841 61.5833C172.787 57.7083 175.228 52.35 175.228 46.4333C175.228 40.5167 172.787 35.1583 168.841 31.2833C166.845 29.2998 164.449 27.7208 161.797 26.6411C159.144 25.5613 156.29 25.0031 153.406 25C153.406 25 142.521 24.975 131.583 35.7167C120.646 24.975 109.761 25 109.761 25C106.877 25.0035 104.024 25.561 101.372 26.6392C98.7196 27.7174 96.3231 29.2941 94.3258 31.275C90.3795 35.1583 87.9383 40.5083 87.9383 46.425C87.9383 52.3417 90.3795 57.7083 94.3258 61.575L131.583 100L168.841 61.5833Z" fill="#0500FF"/>
</g>
</svg>
